<?xml version="1.0" standalone="no"?><!DOCTYPE svg PUBLIC "-//W3C//DTD SVG 1.1//EN" "http://www.w3.org/Graphics/SVG/1.1/DTD/svg11.dtd"><svg t="1728815345512" class="icon" viewBox="0 0 1024 1024" version="1.1" xmlns="http://www.w3.org/2000/svg" p-id="8698" xmlns:xlink="http://www.w3.org/1999/xlink" width="64" height="64"><path d="M934.0928 651.29813333L931.29386667 328.53333333 713.4208 483.25973333l220.672 168.0384z m-42.32533333-378.43626666a68.26666667 68.26666667 0 0 1 107.79306666 55.0912l2.79893334 322.7648a68.26666667 68.26666667 0 0 1-109.60213334 54.8864L672.0512 537.56586667a68.26666667 68.26666667 0 0 1 1.8432-109.9776l217.87306667-154.7264z" fill="#2c2c2c" p-id="8699"></path><path d="M119.46666667 238.93333333a34.13333333 34.13333333 0 0 0-34.13333334 34.13333334v445.20106666a34.13333333 34.13333333 0 0 0 34.13333334 34.13333334h486.74133333a34.13333333 34.13333333 0 0 0 34.13333333-34.13333334V273.06666667a34.13333333 34.13333333 0 0 0-34.13333333-34.13333334H119.46666667z m0-68.26666666h486.74133333a102.4 102.4 0 0 1 102.4 102.4v445.20106666a102.4 102.4 0 0 1-102.4 102.4H119.46666667a102.4 102.4 0 0 1-102.4-102.4V273.06666667a102.4 102.4 0 0 1 102.4-102.4z" fill="#2c2c2c" p-id="8700"></path></svg>